<svg version="1.1" xmlns="http://www.w3.org/2000/svg" viewBox="0 0 137 137" width="411" height="411">
  <!-- svg-source:excalidraw -->
  
  <defs>
    <style>
      @font-face {
        font-family: "Virgil";
        src: url("https://excalidraw.com/FG_Virgil.woff2");
      }
      @font-face {
        font-family: "Cascadia";
        src: url("https://excalidraw.com/Cascadia.woff2");
      }
    </style>
  </defs>
  <rect x="0" y="0" width="137" height="137" fill="#ffffff"></rect><g transform="translate(51.99397379912739 29.381820147266836) rotate(0 17.62550218340607 19.094294032023313)"><path d="M22.565602283083855 0.11799991323938741 C26.06538779206245 0.9022464546399123, 29.825497208189862 4.615181466174905, 32.022736094288405 7.910052399866872 C34.21997498038695 11.20492333355884, 36.09832347910069 15.918455296841648, 35.74903559967512 19.887225515391194 C35.39974772024954 23.855995733940738, 32.762412786481995 28.742233725247566, 29.927008817734965 31.72267371116414 C27.091604848987934 34.70311369708072, 22.30988676076429 37.39865473536176, 18.73661178719293 37.76986543089065 C15.163336813621575 38.141076126419534, 11.367069844447053 36.19947310222543, 8.48735897630682 33.949937884337444 C5.607648108166588 31.700402666449456, 2.446369515246962 28.195828820470712, 1.458346578351538 24.27265412356272 C0.47032364145611394 20.349479426654728, 1.1341275751721103 14.01310683277983, 2.5592213549342766 10.410889702889499 C3.984315134696443 6.808672572999168, 6.21461980471933 4.009666446349564, 10.008909256924536 2.659351344220738 C13.803198709129742 1.3090362420919124, 22.433225475423704 2.1811309416940374, 25.324958068165515 2.3089990901165436 C28.216690660907325 2.4368672385390497, 27.52113251129863 3.3576948846449937, 27.359304813375395 3.426560234755776 M12.728628089767817 0.6030203494426303 C16.10179325891177 -0.4091690786744009, 20.339913147242115 0.8399030109019199, 23.778316230189283 2.6704764153931855 C27.21671931313645 4.501049819884451, 31.52834277594604 7.997836004570841, 33.35904658745082 11.586460776390224 C35.189750398955596 15.175085548209607, 35.69434762006507 20.162865215751093, 34.76253909921795 24.202225046309483 C33.83073057837084 28.241584876867872, 30.58477770580886 33.37706166865215, 27.76819546236816 35.822619759740554 C24.951613218927456 38.268177850828955, 21.45673439617696 39.57527938030449, 17.863045638573738 38.87557359283988 C14.269356880970518 38.17586780537527, 9.013427852158452 34.635772562377504, 6.206062916748838 31.624385034952887 C3.3986979813392235 28.61299750752827, 1.455348694965358 24.60725413220294, 1.018856026116051 20.807248428292166 C0.5823633572667442 17.007242724381392, 1.7560323084733256 11.95781899578179, 3.5871069036529963 8.824350811488246 C5.418181498832667 5.690882627194702, 10.389532623167144 3.1892299714049877, 12.005303597194075 2.0064393225308947 C13.621074571221007 0.823648673656802, 13.320117805330645 1.7713532815917479, 13.281732747814582 1.7276069182436906" stroke="#000000" stroke-width="1" fill="none"></path></g><g transform="translate(42.4468267831146 67.57040821131358) rotate(0 26.43825327510922 26.438253275109204)"><path d="M0.998954875394702 0.5507901776582003 C12.190474690619176 1.1197925987167032, 25.046894331893455 0.11639221333691185, 52.7877803109395 1.0957037676125765 M-0.6367037063464522 -0.32460904959589243 C13.266344734419464 -0.5412714850172818, 25.74107229048079 0.3894777227177798, 53.873029864374054 -0.8231023931875825 M54.42031481487627 1.1687432993203402 C53.69240030164712 16.97768372627929, 52.143351460647516 30.832936485391564, 51.72879573328371 51.72766229508395 M53.59959021860684 -0.028243222273886204 C53.48385820045521 16.230140748101576, 53.242549243116876 32.235800070955065, 53.79384571963872 53.75555363761212 M54.08467313272829 52.285610884408904 C35.34045754880391 52.776957350707946, 15.228304876866837 54.04126860473245, 0.7430707644671202 53.64537814257617 M53.2826359933051 53.15085378752972 C40.78625438956096 53.89129211637799, 30.980509420643475 52.16453438136403, -0.007135159336030483 52.45523024069096 M1.5337168406695127 50.92212250826831 C0.2310915356236356 34.18607197990728, 0.11300048881348546 14.929561322762083, -1.4391476083546877 -1.0942028891295195 M0.6498908931389451 53.75980926023747 C-0.5516353758704102 32.2556313541029, -0.9276432010065949 11.538950968415115, 0.445909165777266 0.481341234408319" stroke="#000000" stroke-width="1" fill="none"></path></g><g transform="translate(66.41936628573058 90.74083535368345) rotate(0 2.495938400074351 6.914259500139366)"><path d="M2.6254599522799253 0.5773565042763948 L6.567694726004219 5.307098971679807 L4.974461955949664 15.081594646515285 L-0.7854805160313845 7.070010649040341" stroke="none" stroke-width="0" fill="#e64980" fill-rule="evenodd"></path><path d="M3.200429308817512 -0.29378419311674875 C4.04670231292682 1.8073187063001013, 4.296919207463003 4.282769295254627, 5.390596962053286 6.532966065031299 M2.8818766744842192 0.28986603434425234 C3.152463334096581 2.186643369013688, 4.026771404398166 4.139898903189162, 4.6923546763990585 7.008871171853624 M5.4075464172676675 7.145036716100813 C4.643848939924611 9.185054506445939, 3.1326618374630986 11.75832540731713, 2.591407581169646 13.877940988916137 M4.981831951638666 7.238793158469431 C4.378318901624942 9.13319365337879, 3.724981245893441 11.272300053050973, 3.312637656582903 13.999929002870749 M2.7796413241827884 14.15494449588924 C2.1525438014767646 11.163935633206158, 1.5806746164195407 9.374013494144553, 0.2867300198137588 6.328975016229355 M3.102310437232955 13.461373265748676 C2.55830161912527 12.306654198443526, 1.188704596403366 10.534636327356699, -0.157103690367156 7.213037125613137 M-0.7442072712606612 6.972549336682649 C0.7574389659153357 5.20593814106067, 1.3434226333815835 3.031707740646292, 2.583339953230441 0.6596549731941602 M0.33635165116499016 6.963868993973474 C1.0351101785796715 4.096528196477002, 2.0900199385056606 1.740971311647112, 3.1832892813875104 0.3132847744197013" stroke="#000000" stroke-width="1" fill="none"></path></g><g transform="translate(66.32250704574244 69.0392000599308) rotate(0 2.7657038000556895 14.289469633621394)"><path d="M0.5773565042763948 1.5758179258555174 L3.838506571791176 1.9744619559496641 L6.784483246347908 27.79345875121141 L0.07001064904034138 28.062979093561417" stroke="none" stroke-width="0" fill="#e64980"></path><path d="M-0.22328474336044923 0.3230028247675679 C1.4473444815010057 0.030258774011518975, 3.394927590599032 0.287805982508317, 5.176447889026212 -0.1720316866608716 M0.22030682590791062 -0.25345857336492633 C1.488640548266319 0.021914538348237943, 2.809538352256321 -0.209690292027386, 5.538149955136085 0.21345251150754407 M5.939209092251066 0.985827075317502 C4.610762264431084 9.626449580179864, 4.604298796356286 20.405608538289297, 5.6703680044329206 28.336616272846705 M6.202825217350427 -0.00019825343042612076 C6.1681659024521736 6.672273970486188, 6.655396411971751 14.673350892583954, 6.013363181456033 29.056806355523413 M5.773493998385287 28.679774352219766 C4.1292209303567615 29.013102972306985, 3.3891479733865193 28.77524395183301, -0.4976511444641782 28.257470600551017 M5.259121918664252 28.807549518074172 C3.76236950569567 28.34515473905914, 1.8168467190495148 28.477601982164778, 0.15799436971630415 28.420360809405924 M-0.07208897359669209 28.772094781319147 C-0.40934002262004976 18.025017072342358, -1.658307610567895 6.7364221056751425, 1.7323388289660215 1.7276130188256502 M-0.09488467033952475 28.401017308043784 C-0.6566244191292303 17.255816317294315, 0.2601772421237451 7.317332817694748, 0.8227261239662766 -0.18727002386003733" stroke="#000000" stroke-width="1" fill="none"></path></g><g transform="translate(80.46000000000004 15.503333333333387) rotate(0 3.8999999999999773 3.9000000000000057)"><path d="M1.3816756545091473 -0.12394067092045502 C1.3816756545091473 -0.12394067092045502, 1.3816756545091473 -0.12394067092045502, 1.3816756545091473 -0.12394067092045502 M1.3816756545091473 -0.12394067092045502 C1.3816756545091473 -0.12394067092045502, 1.3816756545091473 -0.12394067092045502, 1.3816756545091473 -0.12394067092045502 M1.2111954562217546 6.006546085599064 C2.463096211345347 4.535176421134517, 4.365059040610874 2.2504038947194696, 6.227821201331552 1.4872024136413673 M0.7869865579847797 6.118819288575276 C2.3361087355051184 4.928338088992466, 3.6719690364101663 2.8421171643530627, 5.560659135238837 1.1071100522116613 M3.550660293101103 9.193335470884055 C5.430455576045776 7.235790991926248, 6.704700057976573 5.254426113257664, 8.626785839123997 4.968979655950239 M4.429483415576399 9.06428047590977 C5.1371130502135705 8.011667762739235, 6.208488285167027 7.022682053933028, 8.04415608705801 4.648217678720972 M-0.6139816344824203 5.279064335039937 C-0.6139816344824203 5.279064335039937, -0.6139816344824203 5.279064335039937, -0.6139816344824203 5.279064335039937 M-0.6139816344824203 5.279064335039937 C-0.6139816344824203 5.279064335039937, -0.6139816344824203 5.279064335039937, -0.6139816344824203 5.279064335039937 M8.027656927759576 7.583095063421864 C6.058658747845692 5.484652526790474, 3.953774239760584 2.799978715447034, 1.4546568330278766 1.7362255050283844 M7.274127144793797 6.746941522289056 C5.629920619218309 4.961489078175285, 3.202158727890911 3.3704084364316076, 1.0874559260806216 1.3812462540757828 M9.319382356814923 2.870976974525821 C7.744633641683521 1.7342807168609906, 6.4218034102506305 1.041897278605191, 4.714785827331091 -0.8275703129826669 M9.452190499808523 3.2528474185516654 C7.9154232395138555 1.8659661621125185, 6.511674257833225 0.3464653486370677, 4.749755273487264 -0.6174349083101933" stroke="#fab005" stroke-width="0.5" fill="none"></path><path d="M1.3255852049999863 -0.05941598985829133 C1.7633971372587234 -0.5111711171753817, 3.1846892671063496 -1.0779314779567346, 4.17433055034324 -0.8443799400683467 C5.1639718335801295 -0.6108284021799589, 6.62871454736089 0.4919394679250809, 7.263432904421327 1.3418932374720356 C7.898151261481764 2.1918470070189904, 7.968472041379167 3.3180257709618317, 7.982640692705861 4.255342677213381 C7.996809344032554 5.1926595834649305, 7.9391968653638525 6.235109679833035, 7.348444812381492 6.965794674981332 C6.757692759399131 7.696479670129629, 5.425252003923577 8.752465963858866, 4.438128374811695 8.639452648103166 C3.451004745699813 8.526439332347467, 2.2763049470866896 6.855241086761824, 1.425703037710199 6.28771478044714 C0.5751011283337081 5.720188474132456, -0.5535145079532545 5.918175522198563, -0.6654830814472499 5.234294810215065 C-0.7774516549412452 4.550414098231567, 0.3163508726533662 2.908681577760243, 0.7538915967462265 2.18443050854615 C1.191432320839087 1.460179439332057, 1.5703210891196109 1.3637353348808097, 1.9597612631099122 0.8887883949305087 C2.3492014371002137 0.4138414549802077, 2.8415133022593113 -0.6735221437704052, 3.0905326406880342 -0.6652511311556557 M2.3531463266037824 1.0624472283832165 C3.1245038481092378 1.094789740001418, 6.3821819576484735 0.44173372617937867, 7.299150232538624 0.6690475380391621 C8.216118507428774 0.8963613498989454, 7.779753803965788 1.8923272241689688, 7.854955975944684 2.426330099541917 C7.93015814792358 2.9603329749148655, 7.976385674725905 2.931493573666208, 7.750363264411998 3.8730647902768514 C7.524340854098091 4.814636006887495, 7.088760440018191 7.615531971584581, 6.498821514061245 8.075757399205777 C5.908882588104298 8.535982826826974, 5.038052349144788 6.973345073416957, 4.210729708670316 6.634417356004029 C3.3834070681958437 6.295489638591101, 2.085171519561455 6.448922479310187, 1.5348856712144108 6.0421910947282065 C0.9845998228673664 5.635459710146226, 1.0998887645364428 5.033765008235628, 0.9090146185880497 4.194029048512148 C0.7181404726396564 3.3542930887886673, -0.17459684723929347 1.4907314148767106, 0.3896407955240515 1.0037753363873252 C0.9538784382873965 0.5168192578979398, 3.835885881169754 1.3374092111883369, 4.29444047516812 1.2722925775758358 C4.752995069166486 1.2071759439633347, 3.392712370772433 0.7205115742098973, 3.1409683595142477 0.6130755347123191" stroke="#000000" stroke-width="1" fill="none"></path></g><g><g transform="translate(81.3797751675271 21.57488906133554) rotate(0 0.771330576415437 3.7826909702271223)"><path d="M0.3174409646540881 -0.8071951825171708 C0.9175753111392262 -0.0021559984236955154, 2.08988933749497 3.3657102196663606, 2.4163447136431944 4.895672270581126 C2.7428000897914186 6.425634321495891, 2.1780135149508726 7.822880193516614, 2.2761732215434325 8.372577122971418 M-0.9750412582419813 1.383423401322216 C-0.4396701686643063 1.881288405265659, 1.014399870727212 2.5736598732136184, 1.4060052246786663 3.3982004638575014 C1.7976105786301206 4.222741054501385, 1.0257398946024487 5.312952354755255, 1.3745908654667447 6.330666945185515" stroke="#000000" stroke-width="1" fill="none"></path></g></g><g><g transform="translate(90.08563278830547 22.22734440187139) rotate(0 -1.9581178712099927 3.7396127175539675)"><path d="M-2.189576876834036 -0.3354216556996107 C-2.6498983342200524 0.24750886388123006, -3.845352962687612 2.099638106301426, -3.7387422759085895 3.661599616482852 C-3.632131589129567 5.223561126664278, -1.7064707238227133 8.429190353825685, -1.549912756159902 9.036347405388948 M-0.17749346651136944 -1.5571219702810049 C-0.32512997783720543 -0.8391601797193292, -1.0657196370512245 3.4198999003320916, -1.414627434387803 4.869114666357635 C-1.7635352317243813 6.318329432383178, -1.9794110695272684 6.625762849226591, -2.270940250530839 7.138166625872252" stroke="#000000" stroke-width="1" fill="none"></path></g></g><g><g transform="translate(82.94393297924069 26.98786075074719) rotate(0 1.6926679060701417 -0.12918170878663204)"><path d="M0.10335033126175408 -0.7761596638709307 C0.8538856787234546 -0.6494023401290179, 4.069090940430761 0.26378553323447707, 4.686865286305547 0.284235255047679 M-1.3015294741652905 1.4307525672577324 C-0.6903593580983579 1.2184252341650428, 3.2648698152042925 -1.5041502735950052, 3.9471740979887544 -1.6891159848310053" stroke="#000000" stroke-width="1" fill="none"></path></g></g><g><g transform="translate(83.8090496439986 27.751103204134665) rotate(0 0.007891367767001611 0.025116608664390583)"><path d="M-0.27825666479766364 1.0725335519760846 C-0.5484368782490492 0.8034500401467084, -0.40271304659545415 -0.9614722091704607, -0.5329125624150037 -1.0223003346472979 M1.7765198568440974 0.5900097214244306 C1.206473742518574 0.3840251140855253, -1.6777562650106848 0.28733166923746456, -1.760737121310085 -0.021582759115845063" stroke="#000000" stroke-width="1" fill="none"></path></g></g><g><g transform="translate(83.57626679342627 29.133640299900605) rotate(0 1.2783666508323108 -1.6195475362171265)"><path d="M-1.059453759714961 -0.2074352008849385 C-0.43889865212142476 0.07066344670951341, 2.4981000513583402 -0.11992088146507765, 3.190418083146213 -0.26870844908058666 C3.8827361149340853 -0.4174960166960957, 3.6516307992488146 -0.9771894604712725, 3.0944544310122732 -1.1001606065779925 C2.537278062775732 -1.2231317526847125, 0.3800535912066699 -1.1805988628417254, -0.15264012627303591 -1.0065353257209064 M0.5851942870952187 -0.8815676266886296 C1.1346445373632008 -0.8460369409061971, 2.2298587093688527 -1.557740056011826, 2.484092113170771 -1.9496051336266103 C2.738325516972689 -2.3414702112413943, 2.5222562531568107 -3.5659038675762713, 2.110594709906727 -3.2327580923773347 C1.6989331666566434 -2.899612317178398, 0.6369082258082928 -0.6205320079065862, 0.01412285367026933 0.04926951756700837" stroke="#000000" stroke-width="1" fill="none"></path></g></g><g><g transform="translate(84.04742444330009 31.196332907407566) rotate(0 2.494052878655566 -2.2086479771701164)"><path d="M0.6305943030864001 -1.3073957163840528 C1.1364395565539598 -1.1186655838042494, 1.5241446656733746 -1.2528432805091143, 1.90637442536652 -1.3301131326705218 C2.2886041850596657 -1.4073829848319293, 2.5195065445452913 -1.7695882541686299, 2.923972861245273 -1.771014829352498 C3.3284391779452545 -1.7724414045363663, 4.247883026078343 -1.230948172286152, 4.3331723255664105 -1.3386725837737312 C4.418461625054478 -1.4463969952613105, 3.430775575116277 -2.1422135622054332, 3.4357086581736804 -2.4173612982779735 C3.440641741231084 -2.692509034350514, 5.134138781502843 -3.284378076270222, 4.362770823910832 -2.989559000208973 C3.5914028663188216 -2.6947399241477243, -0.4816196399182082 -0.8491384918242689, -1.1924990873783827 -0.6484468419104812 M-0.49748241713270547 -2.2387574128247794 C0.48703530559316277 -2.2712637124396857, 3.7775142461992797 -2.589821714553982, 4.1859255350567395 -2.8384972761012612 C4.594336823914199 -3.0871728376485406, 1.8835167647339384 -3.6222495279647413, 1.9529853160120527 -3.730810782108456 C2.0224538672901673 -3.839372036252171, 4.065535613987594 -3.712877204809337, 4.602736842725426 -3.4898648009635496 C5.139938071463257 -3.2668523971177623, 4.974446648452431 -2.8358325527049595, 5.176192688439041 -2.392736359033733 C5.377938728425652 -1.9496401653625066, 6.871848378870636 -0.9744035355187942, 5.813213082645088 -0.8312876389361907 C4.75457778641954 -0.6881717423535872, -0.06056302776560196 -1.2954132733680301, -1.1756190889142455 -1.5340409795381125" stroke="#000000" stroke-width="1" fill="none"></path></g></g><g transform="translate(10 10) rotate(0 58.5 58.5)"><path d="M-0.9590352699160576 -1.5915141180157661 C36.14256356917323 -2.3661861033365135, 70.79067882671954 -2.4716012091562156, 115.05699718743564 1.3112347051501274 M-0.8737670220434666 0.3920789398252964 C27.013650272414093 -0.6600649142637849, 54.60650808811189 -0.007345535792410374, 117.08133434876801 0.09034937992691994 M115.72166813164951 1.6423828527331352 C116.65996207285674 25.615482267364865, 118.26902784395965 51.21186506822706, 117.19315255433322 116.66695021837951 M117.05974411591889 -0.09178047999739647 C116.96789616849274 31.98900445066393, 117.80282289292664 62.05776927024127, 116.11152135953309 117.24754602089526 M115.75107301026584 118.04527854174377 C90.80098529197276 118.2677798093483, 64.11079289838672 117.65072224747391, -1.1957698985934258 115.9912249967456 M117.58910715207459 117.79133779183032 C74.24891468919814 114.99213732037694, 29.316067044436934 116.15055585656316, -0.8275032080709934 116.59264320507647 M1.0190719440579414 116.62181162089111 C1.1367660070583225 75.41165235079825, 1.5584996248409153 36.19733506068587, -1.3995650932192802 1.593385212123394 M0.8455476723611355 116.4316925443709 C0.27546396438032406 92.25622370429338, 0.27253821078687923 65.88636170625688, -0.327170018106699 -0.8239440284669399" stroke="#000000" stroke-width="1" fill="none"></path></g></svg>